<svg xmlns="http://www.w3.org/2000/svg" width="207.566" height="128" viewBox="0 0 207.566 128">
  <g id="Subtraction_1" data-name="Subtraction 1" transform="translate(-381 0.001)" fill="#ee1e1e">
    <path d="M 577.677978515625 127.4998168945312 L 392.3864440917969 127.4998168945312 C 405.262451171875 125.2107620239258 417.1260986328125 119.0473022460938 426.5868225097656 109.5867691040039 C 438.7829284667969 97.39095306396484 445.4996032714844 81.20124053955078 445.4996032714844 63.99989700317383 C 445.4996032714844 32.30712509155273 422.5209045410156 5.879384994506836 392.3505554199219 0.4999734163284302 L 577.6676635742188 0.4995035231113434 C 547.5137939453125 5.889539241790771 524.4996337890625 32.38441848754883 524.4996337890625 63.99989700317383 C 524.4996337890625 95.60441589355469 547.5238037109375 122.1119995117188 577.677978515625 127.4998168945312 Z" stroke="none"/>
    <path d="M 573.0087890625 126.9998168945312 C 544.9014282226562 119.8296966552734 523.9996337890625 94.22805023193359 523.9996337890625 63.99989700317383 C 523.9996337890625 33.76041412353516 544.89208984375 8.169551849365234 572.9994506835938 0.9995153546333313 L 397.0300598144531 0.9999615550041199 C 425.14453125 8.157251358032227 445.9996032714844 33.68900680541992 445.9996032714844 63.99989700317383 C 445.9996032714844 81.33479309082031 439.2308959960938 97.65007781982422 426.9403686523438 109.940315246582 C 418.5450744628906 118.33544921875 408.2705383300781 124.1545791625977 397.076416015625 126.9998168945312 L 573.0087890625 126.9998168945312 M 588.489990234375 127.9998168945312 L 380.9996643066406 127.9998168945312 C 398.0672607421875 127.9987945556641 414.1315002441406 121.3347396850586 426.2332763671875 109.2332153320312 C 438.3349304199219 97.13184356689453 444.9996032714844 81.06768798828125 444.9996032714844 63.99989700317383 C 444.9996032714844 28.71023941040039 416.2893371582031 2.210115098932874e-06 380.9996643066406 2.210115098932874e-06 L 588.56591796875 -0.0005241056787781417 C 553.515380859375 0.2346864193677902 524.9996337890625 28.94426536560059 524.9996337890625 63.99989700317383 C 524.9996337890625 99.0137939453125 553.4813232421875 127.7231597900391 588.489990234375 127.9978179931641 L 588.489990234375 127.9998168945312 Z" stroke="none" fill="#707070"/>
  </g>
</svg>
